<?xml version="1.0" encoding="UTF-8"?>
<svg id="Layer_2" data-name="Layer 2" xmlns="http://www.w3.org/2000/svg" viewBox="0 0 33.34 33.34">
  <defs>
    <style>
      .cls-1 {
        fill: none;
        stroke-width: 1.5px;
      }

      .cls-1, .cls-2 {
        stroke: #2b79c2;
        stroke-miterlimit: 10;
      }

      .cls-2 {
        fill: #2b79c2;
      }
    </style>
  </defs>
  <g id="NEW_GREY">
    <g>
      <path class="cls-2" d="m27.41,11.01l-4.82,4.82c-.46.46-.46,1.21,0,1.68l4.82,4.82c.46.46.46,1.21,0,1.68l-3.4,3.4c-.46.46-1.21.46-1.68,0l-4.82-4.82c-.46-.46-1.21-.46-1.68,0l-4.82,4.82c-.46.46-1.21.46-1.68,0l-3.4-3.4c-.46-.46-.46-1.21,0-1.68l4.82-4.82c.46-.46.46-1.21,0-1.68l-4.82-4.82c-.46-.46-.46-1.21,0-1.68l3.4-3.4c.46-.46,1.21-.46,1.68,0l4.82,4.82c.46.46,1.21.46,1.68,0l4.82-4.82c.46-.46,1.21-.46,1.68,0l3.4,3.4c.46.46.46,1.21,0,1.68Z"/>
      <rect class="cls-1" x=".75" y=".75" width="31.84" height="31.84" rx="2.23" ry="2.23"/>
    </g>
  </g>
</svg>