<?xml version="1.0" encoding="UTF-8"?>
<svg id="Layer_2" data-name="Layer 2" xmlns="http://www.w3.org/2000/svg" viewBox="0 0 74.77 76.43">
  <defs>
    <style>
      .cls-1 {
        fill: #2b79c2;
      }

      .cls-1, .cls-2, .cls-3, .cls-4, .cls-5 {
        stroke-miterlimit: 10;
      }

      .cls-1, .cls-2, .cls-6, .cls-5 {
        stroke-width: 2px;
      }

      .cls-1, .cls-3, .cls-4, .cls-6, .cls-5 {
        stroke: #e6e7e8;
      }

      .cls-2 {
        stroke: #2b79c2;
      }

      .cls-2, .cls-5 {
        fill: none;
      }

      .cls-3 {
        stroke-width: 5px;
      }

      .cls-3, .cls-4, .cls-6 {
        fill: #e6e7e8;
      }

      .cls-3, .cls-6 {
        stroke-linecap: round;
      }

      .cls-6 {
        stroke-linejoin: round;
      }
    </style>
  </defs>
  <g id="NEW_GREY">
    <g>
      <path class="cls-4" d="m13.77,5.92l-2.31,2.31c-.22.22-.22.58,0,.8l2.31,2.31c.22.22.22.58,0,.8l-1.63,1.63c-.22.22-.58.22-.8,0l-2.31-2.31c-.22-.22-.58-.22-.8,0l-2.31,2.31c-.22.22-.58.22-.8,0l-1.63-1.63c-.22-.22-.22-.58,0-.8l2.31-2.31c.22-.22.22-.58,0-.8l-2.31-2.31c-.22-.22-.22-.58,0-.8l1.63-1.63c.22-.22.58-.22.8,0l2.31,2.31c.22.22.58.22.8,0l2.31-2.31c.22-.22.58-.22.8,0l1.63,1.63c.22.22.22.58,0,.8Z"/>
      <rect class="cls-2" x="1" y="1" width="15.26" height="15.26" rx="2.23" ry="2.23"/>
      <rect class="cls-2" x="1" y="20.73" width="15.26" height="15.26" rx="2.23" ry="2.23"/>
      <path class="cls-4" d="m13.77,45.37l-2.31,2.31c-.22.22-.22.58,0,.8l2.31,2.31c.22.22.22.58,0,.8l-1.63,1.63c-.22.22-.58.22-.8,0l-2.31-2.31c-.22-.22-.58-.22-.8,0l-2.31,2.31c-.22.22-.58.22-.8,0l-1.63-1.63c-.22-.22-.22-.58,0-.8l2.31-2.31c.22-.22.22-.58,0-.8l-2.31-2.31c-.22-.22-.22-.58,0-.8l1.63-1.63c.22-.22.58-.22.8,0l2.31,2.31c.22.22.58.22.8,0l2.31-2.31c.22-.22.58-.22.8,0l1.63,1.63c.22.22.22.58,0,.8Z"/>
      <rect class="cls-2" x="1" y="40.45" width="15.26" height="15.26" rx="2.23" ry="2.23"/>
      <rect class="cls-2" x="1" y="60.18" width="15.26" height="15.26" rx="2.23" ry="2.23"/>
      <polyline class="cls-1" points="40.05 59.72 39.64 51.4 56.01 24.01 70.02 32.39 53.65 59.77 46.14 63.36"/>
      <polyline class="cls-6" points="46.14 63.36 40.17 66.45 40.05 59.72"/>
      <path class="cls-1" d="m56.14,23.62l2.77-4.64c1.71-2.85,5.42-3.79,8.27-2.08l3.65,2.18c2.86,1.71,3.79,5.42,2.09,8.27l-2.77,4.64-14.01-8.37Z"/>
      <line class="cls-5" x1="42.31" y1="46.25" x2="56.92" y2="54.98"/>
      <line class="cls-3" x1="22.32" y1="8.63" x2="55.72" y2="8.63"/>
      <line class="cls-3" x1="22.32" y1="28.19" x2="45.27" y2="28.19"/>
      <line class="cls-3" x1="22.32" y1="47.94" x2="33.79" y2="47.94"/>
      <line class="cls-3" x1="22.32" y1="67.02" x2="33.71" y2="67.02"/>
    </g>
  </g>
</svg>