<?xml version="1.0" encoding="UTF-8"?>
<svg id="Layer_2" data-name="Layer 2" xmlns="http://www.w3.org/2000/svg" viewBox="0 0 74.77 75.93">
  <defs>
    <style>
      .cls-1 {
        fill: #2b79c2;
      }

      .cls-1, .cls-2, .cls-3, .cls-4 {
        stroke-miterlimit: 10;
      }

      .cls-1, .cls-2, .cls-5, .cls-4 {
        stroke: #e6e7e8;
      }

      .cls-1, .cls-5, .cls-4 {
        stroke-width: 2px;
      }

      .cls-2 {
        stroke-width: 5px;
      }

      .cls-2, .cls-6, .cls-5 {
        fill: #e6e7e8;
      }

      .cls-2, .cls-5 {
        stroke-linecap: round;
      }

      .cls-3 {
        stroke: #2b79c2;
      }

      .cls-3, .cls-4 {
        fill: none;
      }

      .cls-5 {
        stroke-linejoin: round;
      }
    </style>
  </defs>
  <g id="NEW_GREY">
    <g>
      <g>
        <path class="cls-6" d="m13.77,5.42l-2.31,2.31c-.22.22-.22.58,0,.8l2.31,2.31c.22.22.22.58,0,.8l-1.63,1.63c-.22.22-.58.22-.8,0l-2.31-2.31c-.22-.22-.58-.22-.8,0l-2.31,2.31c-.22.22-.58.22-.8,0l-1.63-1.63c-.22-.22-.22-.58,0-.8l2.31-2.31c.22-.22.22-.58,0-.8l-2.31-2.31c-.22-.22-.22-.58,0-.8l1.63-1.63c.22-.22.58-.22.8,0l2.31,2.31c.22.22.58.22.8,0l2.31-2.31c.22-.22.58-.22.8,0l1.63,1.63c.22.22.22.58,0,.8Z"/>
        <rect class="cls-3" x="1" y=".5" width="15.26" height="15.26" rx="2.23" ry="2.23"/>
      </g>
      <g>
        <path class="cls-6" d="m13.77,25.14l-2.31,2.31c-.22.22-.22.58,0,.8l2.31,2.31c.22.22.22.58,0,.8l-1.63,1.63c-.22.22-.58.22-.8,0l-2.31-2.31c-.22-.22-.58-.22-.8,0l-2.31,2.31c-.22.22-.58.22-.8,0l-1.63-1.63c-.22-.22-.22-.58,0-.8l2.31-2.31c.22-.22.22-.58,0-.8l-2.31-2.31c-.22-.22-.22-.58,0-.8l1.63-1.63c.22-.22.58-.22.8,0l2.31,2.31c.22.22.58.22.8,0l2.31-2.31c.22-.22.58-.22.8,0l1.63,1.63c.22.22.22.58,0,.8Z"/>
        <rect class="cls-3" x="1" y="20.23" width="15.26" height="15.26" rx="2.23" ry="2.23"/>
      </g>
      <g>
        <path class="cls-6" d="m13.77,44.87l-2.31,2.31c-.22.22-.22.58,0,.8l2.31,2.31c.22.22.22.58,0,.8l-1.63,1.63c-.22.22-.58.22-.8,0l-2.31-2.31c-.22-.22-.58-.22-.8,0l-2.31,2.31c-.22.22-.58.22-.8,0l-1.63-1.63c-.22-.22-.22-.58,0-.8l2.31-2.31c.22-.22.22-.58,0-.8l-2.31-2.31c-.22-.22-.22-.58,0-.8l1.63-1.63c.22-.22.58-.22.8,0l2.31,2.31c.22.22.58.22.8,0l2.31-2.31c.22-.22.58-.22.8,0l1.63,1.63c.22.22.22.58,0,.8Z"/>
        <rect class="cls-3" x="1" y="39.95" width="15.26" height="15.26" rx="2.23" ry="2.23"/>
      </g>
      <rect class="cls-4" x="1" y="59.68" width="15.26" height="15.26" rx="2.23" ry="2.23"/>
      <g>
        <polyline class="cls-1" points="40.05 59.22 39.64 50.9 56.01 23.51 70.02 31.89 53.65 59.27 46.14 62.86"/>
        <polyline class="cls-5" points="46.14 62.86 40.17 65.95 40.05 59.22"/>
        <path class="cls-1" d="m56.14,23.12l2.77-4.64c1.71-2.85,5.42-3.79,8.27-2.08l3.65,2.18c2.86,1.71,3.79,5.42,2.09,8.27l-2.77,4.64-14.01-8.37Z"/>
        <line class="cls-4" x1="42.31" y1="45.75" x2="56.92" y2="54.48"/>
      </g>
      <line class="cls-2" x1="22.32" y1="8.13" x2="55.72" y2="8.13"/>
      <line class="cls-2" x1="22.32" y1="27.69" x2="45.27" y2="27.69"/>
      <line class="cls-2" x1="22.32" y1="47.44" x2="33.79" y2="47.44"/>
      <line class="cls-2" x1="22.32" y1="66.52" x2="33.71" y2="66.52"/>
    </g>
  </g>
</svg>