<?xml version="1.0" encoding="UTF-8"?>
<svg id="Layer_2" data-name="Layer 2" xmlns="http://www.w3.org/2000/svg" viewBox="0 0 35.98 33.34">
  <defs>
    <style>
      .cls-1 {
        stroke-miterlimit: 10;
      }

      .cls-1, .cls-2 {
        fill: #2b79c2;
        stroke: #e6e7e8;
        stroke-linecap: round;
        stroke-width: 1.5px;
      }

      .cls-2 {
        stroke-linejoin: round;
      }
    </style>
  </defs>
  <g id="NEW_GREY">
    <g>
      <path class="cls-2" d="m8.02,12.69h23.05s0-2.65,0-2.65c-.03-2.22-1.71-3.99-3.77-3.98h-7.98c-.3,0-.59-.11-.83-.31L13.56,1.61c-.67-.56-1.48-.86-2.33-.86h-6.71c-2.06-.02-3.74,1.76-3.77,3.98v23.41s3.67-12.66,3.67-12.66c.51-1.68,1.96-2.81,3.6-2.8Z"/>
      <path class="cls-1" d="m35.01,15.34H8.02c-.56-.01-1.06.36-1.24.93l-4.51,15.51c.11.08.21.16.33.24s.22.13.33.19c.15.08.31.14.47.19.1.03.18.07.28.09.25.06.51.1.78.11h23.5c1.64,0,3.09-1.12,3.6-2.8l3.51-11.94c.25-.82.23-1.7-.05-2.51Z"/>
    </g>
  </g>
</svg>