<?xml version="1.0" encoding="UTF-8"?>
<svg id="Layer_2" data-name="Layer 2" xmlns="http://www.w3.org/2000/svg" viewBox="0 0 57.63 57.63">
  <defs>
    <style>
      .cls-1 {
        fill: #e6e7e8;
      }
    </style>
  </defs>
  <g id="NEW_GREY">
    <path class="cls-1" d="m54.95,36.91h-15.36c-1.48,0-2.68,1.2-2.68,2.68v15.36c0,1.48-1.2,2.68-2.68,2.68h-10.85c-1.48,0-2.68-1.2-2.68-2.68v-15.36c0-1.48-1.2-2.68-2.68-2.68H2.68c-1.48,0-2.68-1.2-2.68-2.68v-10.85c0-1.48,1.2-2.68,2.68-2.68h15.36c1.48,0,2.68-1.2,2.68-2.68V2.68c0-1.48,1.2-2.68,2.68-2.68h10.85c1.48,0,2.68,1.2,2.68,2.68v15.36c0,1.48,1.2,2.68,2.68,2.68h15.36c1.48,0,2.68,1.2,2.68,2.68v10.85c0,1.48-1.2,2.68-2.68,2.68Z"/>
  </g>
</svg>