<?xml version="1.0" encoding="UTF-8"?>
<svg id="Layer_2" data-name="Layer 2" xmlns="http://www.w3.org/2000/svg" viewBox="0 0 108.92 74.48">
  <defs>
    <style>
      .cls-1 {
        fill: #383838;
      }

      .cls-1, .cls-2, .cls-3 {
        stroke-miterlimit: 10;
      }

      .cls-1, .cls-3 {
        stroke: #e6e7e8;
        stroke-width: 2px;
      }

      .cls-2 {
        stroke: #2b79c2;
      }

      .cls-2, .cls-3 {
        fill: none;
      }

      .cls-3 {
        stroke-linecap: round;
      }

      .cls-4 {
        fill: #e6e7e8;
      }

      .cls-5 {
        fill: #2b79c2;
      }
    </style>
  </defs>
  <g id="NEW_GREY">
    <g>
      <circle class="cls-4" cx="10.61" cy="15.47" r="4.77"/>
      <circle class="cls-4" cx="10.61" cy="38.89" r="4.77"/>
      <path class="cls-4" d="m53.87,5.56c0-3.06-2.49-5.56-5.56-5.56H5.56C2.49,0,0,2.49,0,5.56v15.08c0,1.67.75,3.15,1.92,4.17-1.17,1.02-1.92,2.5-1.92,4.17v15.08c0,1.67.75,3.15,1.92,4.17-1.17,1.02-1.92,2.5-1.92,4.17v15.08c0,3.06,2.49,5.56,5.56,5.56h42.75c3.07,0,5.56-2.49,5.56-5.56v-15.08c0-1.67-.75-3.15-1.92-4.17,1.17-1.02,1.92-2.5,1.92-4.17v-15.08c0-1.67-.75-3.15-1.92-4.17,1.17-1.02,1.92-2.5,1.92-4.17V5.56ZM2.78,5.56c0-1.53,1.25-2.78,2.78-2.78h42.75c1.53,0,2.78,1.25,2.78,2.78v15.08c0,1.53-1.25,2.78-2.78,2.78H5.56c-1.53,0-2.78-1.25-2.78-2.78V5.56Zm48.31,46.83v15.08c0,1.53-1.25,2.78-2.78,2.78H5.56c-1.53,0-2.78-1.25-2.78-2.78v-15.08c0-1.53,1.25-2.78,2.78-2.78h42.75c1.53,0,2.78,1.25,2.78,2.78Zm-45.53-5.56c-1.53,0-2.78-1.25-2.78-2.78v-15.08c0-1.53,1.25-2.78,2.78-2.78h42.75c1.53,0,2.78,1.25,2.78,2.78v15.08c0,1.53-1.25,2.78-2.78,2.78H5.56Z"/>
      <circle class="cls-4" cx="10.61" cy="62.3" r="4.77"/>
      <g>
        <path class="cls-1" d="m24.1,36.02c0,2.77,9.54,5.02,21.32,5.02s21.32-2.25,21.32-5.02v33-.56c0,2.77-9.54,5.02-21.32,5.02s-21.32-2.25-21.32-5.02v.56-33Z"/>
        <path class="cls-3" d="m24.1,57.59c0,2.77,9.54,5.02,21.32,5.02s21.32-2.25,21.32-5.02"/>
        <ellipse class="cls-1" cx="45.41" cy="35.88" rx="21.32" ry="5.02"/>
        <path class="cls-3" d="m24.1,47.15c0,2.77,9.54,5.02,21.32,5.02s21.32-2.25,21.32-5.02"/>
      </g>
      <g>
        <path class="cls-5" d="m91.31,47.15c.81-5.95.72-11.96-.34-17.71-.55-2.87-1.34-5.67-2.43-8.28-1.08-2.61-2.5-5.05-4.26-6.95l-.66-.7-.71-.61c-.45-.44-.98-.72-1.45-1.07-1.02-.55-2.03-1.05-3.08-1.17l-.38-.08c-.13-.01-.27,0-.4-.01l-.78-.04-.79.08c-.26.01-.52.04-.79.13l-.79.18c-.26.06-.53.2-.79.28-.26.11-.53.18-.79.3l-.79.41c-4.23,2.23-7.95,6.46-11.17,10.91l-8.37-7.04c2.31-2.28,4.63-4.55,7.36-6.52,2.7-1.98,5.66-3.8,9.12-4.96l1.3-.41c.44-.12.92-.2,1.37-.29.47-.08.91-.2,1.39-.24l1.44-.1c.47-.05.96-.03,1.45.01l1.45.11,1.44.3c.24.06.48.1.71.17l.69.25c1.87.59,3.47,1.68,4.9,2.83.65.63,1.36,1.22,1.89,1.91.28.34.57.67.84,1.01l.73,1.06c1.89,2.85,3.05,5.92,3.81,9,.76,3.08,1.14,6.18,1.25,9.27.19,6.17-.68,12.25-2.38,18.01Z"/>
        <polygon class="cls-5" points="47.95 8.08 45.41 35.88 70.77 24.19 47.95 8.08"/>
      </g>
      <g>
        <path class="cls-5" d="m84.89,67.17c0,1.31-.27,2.45-.81,3.42-.54.97-1.29,1.7-2.26,2.17-.97.48-2.14.71-3.5.71-1.58,0-3.03-.35-4.35-1.04v-5.4c.63.6,1.33,1.09,2.1,1.46s1.48.56,2.14.56c.5,0,.89-.12,1.16-.35.27-.23.41-.58.41-1.02,0-.32-.07-.6-.21-.85-.14-.24-.34-.47-.62-.68-.28-.21-.79-.5-1.55-.87-2.43-1.22-3.65-3.19-3.65-5.91,0-1.91.56-3.43,1.67-4.57,1.11-1.14,2.6-1.71,4.47-1.71.53,0,1.01.03,1.46.08.44.06.85.12,1.21.21.36.08.87.24,1.52.47v5.01c-1.27-.91-2.52-1.36-3.76-1.36-.51,0-.91.12-1.22.37s-.46.59-.46,1.02.12.75.38,1.02c.25.27.77.62,1.57,1.05,1.57.82,2.68,1.73,3.33,2.71.65.98.98,2.14.98,3.49Z"/>
        <path class="cls-5" d="m86.74,73.13v-19.7h9.42v4.64h-4.86v2.87h4.57v4.64h-4.57v2.9h5.21v4.64h-9.77Z"/>
        <path class="cls-5" d="m98.66,73.13v-19.7h4.56v15.06h5.21v4.64h-9.77Z"/>
      </g>
      <g>
        <path class="cls-4" d="m106.48,41.53l-1.81,1.81c-.17.17-.17.46,0,.63l1.81,1.81c.17.17.17.46,0,.63l-1.28,1.28c-.17.17-.46.17-.63,0l-1.81-1.81c-.17-.17-.46-.17-.63,0l-1.81,1.81c-.17.17-.46.17-.63,0l-1.28-1.28c-.17-.17-.17-.46,0-.63l1.81-1.81c.17-.17.17-.46,0-.63l-1.81-1.81c-.17-.17-.17-.46,0-.63l1.28-1.28c.17-.17.46-.17.63,0l1.81,1.81c.17.17.46.17.63,0l1.81-1.81c.17-.17.46-.17.63,0l1.28,1.28c.17.17.17.46,0,.63Z"/>
        <rect class="cls-2" x="96.47" y="37.67" width="11.96" height="11.96" rx="2.23" ry="2.23"/>
      </g>
    </g>
  </g>
</svg>