<?xml version="1.0" encoding="UTF-8"?>
<svg id="Layer_2" data-name="Layer 2" xmlns="http://www.w3.org/2000/svg" viewBox="0 0 108.92 74.48">
  <defs>
    <style>
      .cls-1 {
        fill: #383838;
      }

      .cls-1, .cls-2, .cls-3 {
        stroke-miterlimit: 10;
      }

      .cls-1, .cls-3 {
        stroke: #e6e7e8;
        stroke-width: 2px;
      }

      .cls-2 {
        stroke: #2b79c2;
      }

      .cls-2, .cls-3 {
        fill: none;
      }

      .cls-3 {
        stroke-linecap: round;
      }

      .cls-4 {
        fill: #e6e7e8;
      }

      .cls-5 {
        fill: #2b79c2;
      }
    </style>
  </defs>
  <g id="NEW_GREY">
    <g>
      <g>
        <path class="cls-5" d="m84.89,67.17c0,1.31-.27,2.45-.81,3.42-.54.97-1.29,1.7-2.26,2.17-.97.48-2.14.71-3.5.71-1.58,0-3.03-.35-4.35-1.04v-5.4c.63.6,1.33,1.09,2.1,1.46s1.48.56,2.14.56c.5,0,.89-.12,1.16-.35.27-.23.41-.58.41-1.02,0-.32-.07-.6-.21-.85-.14-.24-.34-.47-.62-.68-.28-.21-.79-.5-1.55-.87-2.43-1.22-3.65-3.19-3.65-5.91,0-1.91.56-3.43,1.67-4.57,1.11-1.14,2.6-1.71,4.47-1.71.53,0,1.01.03,1.46.08.44.06.85.12,1.21.21.36.08.87.24,1.52.47v5.01c-1.27-.91-2.52-1.36-3.76-1.36-.51,0-.91.12-1.22.37s-.46.59-.46,1.02.12.75.38,1.02c.25.27.77.62,1.57,1.05,1.57.82,2.68,1.73,3.33,2.71.65.98.98,2.14.98,3.49Z"/>
        <path class="cls-5" d="m86.74,73.13v-19.7h9.42v4.64h-4.86v2.87h4.57v4.64h-4.57v2.9h5.21v4.64h-9.77Z"/>
        <path class="cls-5" d="m98.66,73.13v-19.7h4.56v15.06h5.21v4.64h-9.77Z"/>
      </g>
      <g>
        <path class="cls-4" d="m106.48,42.74l-1.81,1.81c-.17.17-.17.46,0,.63l1.81,1.81c.17.17.17.46,0,.63l-1.28,1.28c-.17.17-.46.17-.63,0l-1.81-1.81c-.17-.17-.46-.17-.63,0l-1.81,1.81c-.17.17-.46.17-.63,0l-1.28-1.28c-.17-.17-.17-.46,0-.63l1.81-1.81c.17-.17.17-.46,0-.63l-1.81-1.81c-.17-.17-.17-.46,0-.63l1.28-1.28c.17-.17.46-.17.63,0l1.81,1.81c.17.17.46.17.63,0l1.81-1.81c.17-.17.46-.17.63,0l1.28,1.28c.17.17.17.46,0,.63Z"/>
        <rect class="cls-2" x="96.47" y="38.89" width="11.96" height="11.96" rx="2.23" ry="2.23"/>
      </g>
      <circle class="cls-4" cx="10.61" cy="15.47" r="4.77"/>
      <circle class="cls-4" cx="10.61" cy="38.89" r="4.77"/>
      <path class="cls-4" d="m53.87,5.56c0-3.06-2.49-5.56-5.56-5.56H5.56C2.49,0,0,2.49,0,5.56v15.08c0,1.67.75,3.15,1.92,4.17-1.17,1.02-1.92,2.5-1.92,4.17v15.08c0,1.67.75,3.15,1.92,4.17-1.17,1.02-1.92,2.5-1.92,4.17v15.08c0,3.06,2.49,5.56,5.56,5.56h42.75c3.07,0,5.56-2.49,5.56-5.56v-15.08c0-1.67-.75-3.15-1.92-4.17,1.17-1.02,1.92-2.5,1.92-4.17v-15.08c0-1.67-.75-3.15-1.92-4.17,1.17-1.02,1.92-2.5,1.92-4.17V5.56ZM2.78,5.56c0-1.53,1.25-2.78,2.78-2.78h42.75c1.53,0,2.78,1.25,2.78,2.78v15.08c0,1.53-1.25,2.78-2.78,2.78H5.56c-1.53,0-2.78-1.25-2.78-2.78V5.56Zm48.31,46.83v15.08c0,1.53-1.25,2.78-2.78,2.78H5.56c-1.53,0-2.78-1.25-2.78-2.78v-15.08c0-1.53,1.25-2.78,2.78-2.78h42.75c1.53,0,2.78,1.25,2.78,2.78Zm-45.53-5.56c-1.53,0-2.78-1.25-2.78-2.78v-15.08c0-1.53,1.25-2.78,2.78-2.78h42.75c1.53,0,2.78,1.25,2.78,2.78v15.08c0,1.53-1.25,2.78-2.78,2.78H5.56Z"/>
      <circle class="cls-4" cx="10.61" cy="62.3" r="4.77"/>
      <g>
        <path class="cls-1" d="m24.1,36.02c0,2.77,9.54,5.02,21.32,5.02s21.32-2.25,21.32-5.02v33-.56c0,2.77-9.54,5.02-21.32,5.02s-21.32-2.25-21.32-5.02v.56-33Z"/>
        <path class="cls-3" d="m24.1,57.59c0,2.77,9.54,5.02,21.32,5.02s21.32-2.25,21.32-5.02"/>
        <ellipse class="cls-1" cx="45.41" cy="35.88" rx="21.32" ry="5.02"/>
        <path class="cls-3" d="m24.1,47.15c0,2.77,9.54,5.02,21.32,5.02s21.32-2.25,21.32-5.02"/>
      </g>
      <g>
        <path class="cls-5" d="m86.64,27.9c-.18-2.64-.62-5.25-1.36-7.7-.35-1.24-.83-2.38-1.34-3.5-.56-1.06-1.14-2.13-1.86-2.98-1.41-1.78-3.13-2.97-5.23-3.38-2.09-.45-4.59.04-7.03,1.06-2.45,1.03-4.82,2.62-7.05,4.42-2.23,1.81-4.37,3.82-6.36,6-4.02,4.32-7.64,9.11-11.01,14.07,2.58-5.41,5.45-10.72,8.87-15.77,1.69-2.54,3.58-4.97,5.68-7.28,2.11-2.3,4.45-4.49,7.3-6.26,1.44-.86,2.96-1.68,4.68-2.2,1.69-.59,3.57-.88,5.5-.83,3.9.05,7.77,1.92,10.48,4.44,2.78,2.52,4.73,5.55,6.22,8.65,1.49,3.11,2.54,6.33,3.29,9.59l-10.79,1.68Z"/>
        <polygon class="cls-5" points="105.42 23.06 91.31 47.15 77.5 22.89 105.42 23.06"/>
      </g>
    </g>
  </g>
</svg>