<?xml version="1.0" encoding="UTF-8"?>
<svg id="Layer_2" data-name="Layer 2" xmlns="http://www.w3.org/2000/svg" viewBox="0 0 112.04 74.48">
  <defs>
    <style>
      .cls-1 {
        fill: #383838;
      }

      .cls-1, .cls-2 {
        stroke: #e6e7e8;
        stroke-miterlimit: 10;
        stroke-width: 2px;
      }

      .cls-2 {
        fill: none;
        stroke-linecap: round;
      }

      .cls-3 {
        fill: #e6e7e8;
      }

      .cls-4 {
        fill: #2b79c2;
      }
    </style>
  </defs>
  <g id="NEW_GREY">
    <g>
      <circle class="cls-3" cx="10.61" cy="15.47" r="4.77"/>
      <circle class="cls-3" cx="10.61" cy="38.89" r="4.77"/>
      <path class="cls-3" d="m53.87,5.56c0-3.06-2.49-5.56-5.56-5.56H5.56C2.49,0,0,2.49,0,5.56v15.08c0,1.67.75,3.15,1.92,4.17-1.17,1.02-1.92,2.5-1.92,4.17v15.08c0,1.67.75,3.15,1.92,4.17-1.17,1.02-1.92,2.5-1.92,4.17v15.08c0,3.06,2.49,5.56,5.56,5.56h42.75c3.07,0,5.56-2.49,5.56-5.56v-15.08c0-1.67-.75-3.15-1.92-4.17,1.17-1.02,1.92-2.5,1.92-4.17v-15.08c0-1.67-.75-3.15-1.92-4.17,1.17-1.02,1.92-2.5,1.92-4.17V5.56ZM2.78,5.56c0-1.53,1.25-2.78,2.78-2.78h42.75c1.53,0,2.78,1.25,2.78,2.78v15.08c0,1.53-1.25,2.78-2.78,2.78H5.56c-1.53,0-2.78-1.25-2.78-2.78V5.56Zm48.31,46.83v15.08c0,1.53-1.25,2.78-2.78,2.78H5.56c-1.53,0-2.78-1.25-2.78-2.78v-15.08c0-1.53,1.25-2.78,2.78-2.78h42.75c1.53,0,2.78,1.25,2.78,2.78Zm-45.53-5.56c-1.53,0-2.78-1.25-2.78-2.78v-15.08c0-1.53,1.25-2.78,2.78-2.78h42.75c1.53,0,2.78,1.25,2.78,2.78v15.08c0,1.53-1.25,2.78-2.78,2.78H5.56Z"/>
      <circle class="cls-3" cx="10.61" cy="62.3" r="4.77"/>
      <g>
        <path class="cls-1" d="m24.1,36.02c0,2.77,9.54,5.02,21.32,5.02s21.32-2.25,21.32-5.02v33-.56c0,2.77-9.54,5.02-21.32,5.02s-21.32-2.25-21.32-5.02v.56-33Z"/>
        <path class="cls-2" d="m24.1,57.59c0,2.77,9.54,5.02,21.32,5.02s21.32-2.25,21.32-5.02"/>
        <ellipse class="cls-1" cx="45.41" cy="35.88" rx="21.32" ry="5.02"/>
        <path class="cls-2" d="m24.1,47.15c0,2.77,9.54,5.02,21.32,5.02s21.32-2.25,21.32-5.02"/>
      </g>
      <g>
        <path class="cls-4" d="m86.64,27.9c-.18-2.64-.62-5.25-1.36-7.7-.35-1.24-.83-2.38-1.34-3.5-.56-1.06-1.14-2.13-1.86-2.98-1.41-1.78-3.13-2.97-5.23-3.38-2.09-.45-4.59.04-7.03,1.06-2.45,1.03-4.82,2.62-7.05,4.42-2.23,1.81-4.37,3.82-6.36,6-4.02,4.32-7.64,9.11-11.01,14.07,2.58-5.41,5.45-10.72,8.87-15.77,1.69-2.54,3.58-4.97,5.68-7.28,2.11-2.3,4.45-4.49,7.3-6.26,1.44-.86,2.96-1.68,4.68-2.2,1.69-.59,3.57-.88,5.5-.83,3.9.05,7.77,1.92,10.48,4.44,2.78,2.52,4.73,5.55,6.22,8.65,1.49,3.11,2.54,6.33,3.29,9.59l-10.79,1.68Z"/>
        <polygon class="cls-4" points="105.42 23.06 91.31 47.15 77.5 22.89 105.42 23.06"/>
      </g>
      <path class="cls-4" d="m83.87,73.48l-.66-3.63h-4.52l-.72,3.63h-4.93l5.21-19.7h5.65l4.91,19.7h-4.95Zm-2.87-15.42h-.11c-.01.22-.06.58-.15,1.09-.08.5-.51,2.67-1.28,6.49h2.89l-1.05-5.36c-.15-.79-.25-1.52-.31-2.21Zm9.59,15.42v-19.7h4.56v15.06h5.21v4.64h-9.77Zm11.69,0v-19.7h4.56v15.06h5.21v4.64h-9.77Z"/>
      <polygon class="cls-3" points="109.15 41.89 105.64 41.89 108.36 39.17 107.13 37.94 104.41 40.65 104.41 36.81 102.67 36.81 102.67 40.65 100.19 38.17 98.95 39.4 101.44 41.89 97.93 41.89 97.93 43.63 101.44 43.63 98.72 46.35 99.95 47.58 102.67 44.86 102.67 48.71 104.41 48.71 104.41 44.86 106.89 47.34 108.13 46.11 105.64 43.63 109.15 43.63 109.15 41.89"/>
    </g>
  </g>
</svg>