<?xml version="1.0" encoding="UTF-8"?>
<svg id="Layer_2" data-name="Layer 2" xmlns="http://www.w3.org/2000/svg" viewBox="0 0 50.51 50.51">
  <defs>
    <style>
      .cls-1 {
        fill: #e6e7e8;
      }

      .cls-2 {
        fill: #2b79c2;
        stroke: #2b79c2;
        stroke-miterlimit: 10;
      }
    </style>
  </defs>
  <g id="NEW_GREY">
    <g>
      <path class="cls-1" d="m49.61,20.75h-5.06c-.49-2.11-1.32-4.12-2.46-5.95l3.56-3.56c.35-.35.36-.92,0-1.27,0,0,0,0,0,0l-5.1-5.1c-.35-.35-.92-.35-1.27,0,0,0,0,0,0,0l-3.57,3.57c-1.83-1.14-3.84-1.97-5.95-2.47V.9c0-.5-.4-.9-.9-.9h-7.22c-.5,0-.9.4-.9.9h0v5.06c-2.11.49-4.12,1.32-5.96,2.45l-3.56-3.56c-.35-.35-.92-.35-1.27,0,0,0,0,0,0,0l-5.11,5.1c-.35.35-.35.92,0,1.27,0,0,0,0,0,0l3.57,3.57c-1.14,1.83-1.97,3.84-2.47,5.95H.9c-.5,0-.9.4-.9.9v7.22c0,.5.4.9.9.9h5.05c.49,2.11,1.32,4.12,2.46,5.95l-3.56,3.56c-.35.35-.35.92,0,1.27,0,0,0,0,0,0l5.1,5.11c.35.35.92.35,1.27,0,0,0,0,0,0,0l3.57-3.57c1.83,1.14,3.84,1.98,5.95,2.47v5.05c0,.5.4.9.9.9h7.22c.5,0,.9-.4.9-.9v-5.05c2.11-.49,4.12-1.32,5.96-2.45l3.56,3.56c.35.35.92.35,1.27,0,0,0,0,0,0,0l5.1-5.11c.35-.35.35-.92,0-1.27,0,0,0,0,0,0l-3.57-3.57c1.14-1.83,1.97-3.84,2.47-5.95h5.05c.5,0,.9-.41.9-.9v-7.21c0-.5-.4-.9-.9-.9Zm-24.36,17.14h0c-6.97,0-12.63-5.65-12.63-12.62h0c0-6.98,5.65-12.63,12.63-12.63h0c6.97,0,12.63,5.65,12.63,12.63,0,6.97-5.65,12.63-12.62,12.63Z"/>
      <circle class="cls-2" cx="25.26" cy="25.26" r="4.77"/>
    </g>
  </g>
</svg>