<?xml version="1.0" encoding="UTF-8"?>
<svg id="Layer_2" data-name="Layer 2" xmlns="http://www.w3.org/2000/svg" viewBox="0 0 39.45 108">
  <defs>
    <style>
      .cls-1 {
        fill: #e6e7e8;
      }

      .cls-2 {
        fill: #2b79c2;
      }
    </style>
  </defs>
  <g id="MSG">
    <g>
      <rect class="cls-1" width="39.45" height="108"/>
      <path class="cls-2" d="m14.65,60.25l-2.59-8.68c1.02-.23,2.06-.51,3.11-.84s2.06-.7,3.04-1.12c.98-.42,1.85-.91,2.62-1.47s1.37-1.21,1.82-1.96c.44-.75.66-1.56.66-2.45,0-.61-.13-1.09-.38-1.47-.26-.37-.62-.66-1.08-.87s-1.03-.31-1.68-.31c-1.31,0-2.65.47-4.02,1.4-1.38.93-2.74,2.68-4.09,5.25l-9.45-9.1c2.19-3.36,4.79-5.95,7.8-7.77,3.01-1.82,6.17-2.73,9.48-2.73s6.04.64,8.6,1.92c2.56,1.28,4.59,3.03,6.09,5.25s2.24,4.7,2.24,7.45c0,1.87-.38,3.72-1.15,5.56-.77,1.84-1.84,3.56-3.22,5.14-1.38,1.59-3,2.96-4.86,4.13-1.87,1.17-3.92,2.05-6.16,2.66h-6.79Z"/>
      <path class="cls-2" d="m12.06,72.29c0-2.05.64-3.73,1.92-5.04s2.95-1.96,5-1.96c2.19,0,3.9.61,5.11,1.82,1.21,1.21,1.82,2.94,1.82,5.18,0,2.05-.64,3.73-1.92,5.04-1.28,1.3-2.95,1.96-5,1.96-2.19,0-3.9-.61-5.11-1.82-1.21-1.21-1.82-2.94-1.82-5.18Z"/>
    </g>
  </g>
</svg>