<?xml version="1.0" encoding="UTF-8"?>
<svg id="Layer_2" data-name="Layer 2" xmlns="http://www.w3.org/2000/svg" viewBox="0 0 32.84 32.52">
  <defs>
    <style>
      .cls-1 {
        fill: #e6e7e8;
      }

      .cls-2, .cls-3 {
        fill: #2b79c2;
      }

      .cls-3 {
        stroke: #2b79c2;
        stroke-miterlimit: 10;
      }
    </style>
  </defs>
  <g id="NEW_GREY">
    <g>
      <rect class="cls-1" x="6.47" y="20.24" width="19.9" height="11.94" rx="1.99" ry="1.99"/>
      <path class="cls-3" d="m28.36.71v11.57c0,1.1-.89,1.99-1.99,1.99H6.47c-1.1,0-1.99-.89-1.99-1.99V.71C2.17,1.53.5,3.72.5,6.31v19.9c0,2.6,1.67,4.78,3.98,5.6v-11.57c0-1.1.89-1.99,1.99-1.99h19.9c1.1,0,1.99.89,1.99,1.99v11.57c2.31-.82,3.98-3.01,3.98-5.6V6.31c0-2.59-1.67-4.78-3.98-5.6Z"/>
      <path class="cls-1" d="m24.38.34h-11.94c-1.1,0-1.99.89-1.99,1.99v7.96c0,1.1.89,1.99,1.99,1.99h11.94c1.1,0,1.99-.89,1.99-1.99V2.33c0-1.1-.89-1.99-1.99-1.99Zm0,7.96c0,1.1-.89,1.99-1.99,1.99s-1.99-.89-1.99-1.99v-3.98c0-1.1.89-1.99,1.99-1.99s1.99.89,1.99,1.99v3.98Z"/>
      <polygon class="cls-2" points="19.27 25.55 19.27 21.14 13.57 21.14 13.57 25.55 10.45 25.55 16.42 31.28 22.39 25.55 19.27 25.55"/>
    </g>
  </g>
</svg>