<?xml version="1.0" encoding="UTF-8"?>
<svg id="Layer_2" data-name="Layer 2" xmlns="http://www.w3.org/2000/svg" viewBox="0 0 44.22 25">
  <defs>
    <style>
      .cls-1 {
        fill: #e6e7e8;
      }

      .cls-2 {
        fill: #2b79c2;
      }
    </style>
  </defs>
  <g id="NEW_GREY">
    <g>
      <path class="cls-1" d="m22.11,0C13.11,0,4.7,4.77,0,12.5c4.7,7.73,13.11,12.5,22.11,12.5s17.41-4.77,22.11-12.5C39.52,4.77,31.11,0,22.11,0Zm0,21.74c-5.09,0-9.24-4.15-9.24-9.24S17.02,3.26,22.11,3.26s9.24,4.15,9.24,9.24-4.15,9.24-9.24,9.24Z"/>
      <path class="cls-2" d="m22.11,5.43c-3.9,0-7.07,3.17-7.07,7.07s3.17,7.07,7.07,7.07,7.07-3.17,7.07-7.07-3.17-7.07-7.07-7.07Zm0,4.35c-.65,0-1.24.24-1.71.62l-.38.38c-.39.47-.62,1.06-.62,1.71,0,.6-.49,1.09-1.09,1.09s-1.09-.49-1.09-1.09c0-2.7,2.2-4.89,4.89-4.89.6,0,1.09.49,1.09,1.09s-.49,1.09-1.09,1.09Z"/>
    </g>
  </g>
</svg>