<?xml version="1.0" encoding="UTF-8"?>
<svg id="Layer_2" data-name="Layer 2" xmlns="http://www.w3.org/2000/svg" viewBox="0 0 60.35 63.79">
  <defs>
    <style>
      .cls-1, .cls-2 {
        stroke: #000;
        stroke-linecap: round;
        stroke-linejoin: round;
        stroke-width: 2px;
      }

      .cls-1, .cls-3 {
        fill: #2b79c2;
      }

      .cls-2, .cls-4 {
        fill: #45f6ff;
      }

      .cls-5 {
        fill: #e1e548;
      }
    </style>
  </defs>
  <g id="ICON">
    <g>
      <g>
        <path class="cls-4" d="m44.91,7.69l13.56,3.84.44-1.56c.35-1.31-.34-2.63-1.55-2.97l-4.69-1.33c-.18-.05-.33-.16-.43-.32l-2.22-3.26c-.3-.44-.73-.75-1.23-.9l-3.95-1.12c-1.21-.35-2.5.41-2.88,1.71l-3.9,13.77,4.27-6.83c.58-.9,1.62-1.33,2.58-1.05Z"/>
        <path class="cls-4" d="m60.35,13.75l-15.88-4.5c-.33-.1-.68.04-.89.34l-5.24,8.37c.05.07.1.13.16.2s.11.11.16.16c.08.07.16.13.24.19.05.03.1.07.15.1.14.08.29.14.44.19l13.82,3.92c.96.28,2.01-.15,2.58-1.05l4.05-6.44c.28-.44.42-.96.39-1.48Z"/>
      </g>
      <g>
        <path class="cls-3" d="m18.77,45.44l4.29,6.56-3.78-13.31c-.37-1.26-1.69-1.98-2.95-1.61l-4.11,1.17c-.52.15-.97.46-1.29.9l-2.36,3.21c-.11.15-.27.27-.46.32l-4.89,1.39c-1.26.35-2.01,1.65-1.67,2.92l.43,1.51,14.12-4.01c1-.29,2.07.1,2.65.97Z"/>
        <path class="cls-3" d="m.38,52.11l4.08,6.18c.58.87,1.65,1.26,2.66.97l14.39-4.09c.16-.05.31-.12.46-.2.06-.03.1-.07.16-.1.09-.06.18-.12.26-.19.06-.05.11-.1.17-.16s.11-.13.17-.19l-5.27-8.03c-.2-.29-.57-.42-.91-.31L0,50.68c-.04.51.09,1.01.37,1.43Z"/>
      </g>
      <g>
        <path class="cls-1" d="m6.66,15.3l4.39,10.86c.4,1,1.61,1.45,2.7,1.02l11.8-4.76c1.09-.44,1.64-1.6,1.23-2.6l-5.85-14.48c-.4-1-1.61-1.45-2.7-1.02l-7.86,3.18-3.7,7.81Z"/>
        <path class="cls-1" d="m6.66,15.3l5.9-2.38-2.19-5.43m9.92,7.57l-7.86,3.18m9.33.44l-7.86,3.18m4.94-10.42l-1.97.79"/>
      </g>
      <polygon class="cls-5" points="53.89 35.45 35.82 35.45 35.82 53.53 23.77 53.53 23.77 35.45 5.7 35.45 5.7 23.41 23.77 23.41 23.77 5.33 35.82 5.33 35.82 23.41 53.89 23.41 53.89 35.45"/>
      <g>
        <path class="cls-2" d="m54.53,40.55l-8.29-5.42c-1.15-.75-2.63-.5-3.32.55l-9.99,15.28c-.69,1.05-.32,2.52.83,3.26l12.44,8.13c1.15.75,2.63.5,3.32-.55l7.49-11.46-2.48-9.79Z"/>
        <path class="cls-2" d="m54.53,40.55l-3.74,5.73,6.22,4.07m-7.27,2.06l-8.29-5.42m5.8,9.24l-8.29-5.42m7.07-6.28l-2.07-1.36"/>
      </g>
    </g>
  </g>
</svg>