<?xml version="1.0" encoding="UTF-8"?>
<svg id="Layer_2" data-name="Layer 2" xmlns="http://www.w3.org/2000/svg" viewBox="0 0 100.7 63.79">
  <defs>
    <style>
      .cls-1, .cls-2 {
        fill: #45f6ff;
      }

      .cls-3 {
        fill: #2b79c2;
      }

      .cls-3, .cls-4, .cls-2 {
        stroke: #45f6ff;
        stroke-miterlimit: 10;
        stroke-width: 1.5px;
      }

      .cls-5 {
        fill: #e1e548;
      }

      .cls-4 {
        fill: none;
      }
    </style>
  </defs>
  <g id="ICON">
    <g>
      <g>
        <path class="cls-4" d="m25.81,63.1l-9.01-5.28h-5.08s0,4.32,0,4.32H2.91v-4.32s-.06,0-.06,0c-1.16,0-2.1-.94-2.1-2.1V8.04c0-1.16.94-2.1,2.1-2.1h13.63S25.81.69,25.81.69"/>
        <path class="cls-4" d="m35.03,5.97l25.47-.03c1.16,0,2.1.94,2.1,2.1v47.68c0,.39-.29,2.1-2.16,2.1v4.32h-7.81v-4.32s-17.63,0-17.63,0"/>
        <path class="cls-4" d="m35,52.78c15.38,0,18.31.07,20.91.07.81,0,.81-1.12.81-1.84V12.85c0-1.4-1.14-2.53-2.54-2.53l-19.18.03"/>
        <polygon class="cls-4" points="26.05 63.04 26.05 .75 34.53 .75 34.53 1.91 34.53 6.57 34.53 19.37 34.53 32.18 34.53 40.33 34.53 53.13 34.53 57.79 34.53 63.04 26.05 63.04"/>
        <circle class="cls-1" cx="30.29" cy="10.59" r="2.43"/>
        <circle class="cls-1" cx="30.29" cy="51.21" r="2.43"/>
        <circle class="cls-1" cx="30.29" cy="43.73" r="2.43"/>
        <circle class="cls-1" cx="30.29" cy="17.95" r="2.43"/>
        <path class="cls-4" d="m16.48,5.94l-9.88,5.73s0,3.46,0,9.45v21.62s0,5.4,0,5.4v3.96s10.44,5.86,10.44,5.86"/>
        <rect class="cls-2" x="4.58" y="14.44" width="4.02" height="10.44" rx="1.56" ry="1.56"/>
        <rect class="cls-2" x="4.59" y="39.12" width="4.02" height="10.44" rx="1.56" ry="1.56"/>
      </g>
      <polygon class="cls-5" points="36.02 33.22 54.32 16.82 54.32 25.02 75.2 25.02 75.2 41.41 54.32 41.41 54.32 49.61 36.02 33.22"/>
      <g>
        <path class="cls-3" d="m91.33,36.3c-2.38-1.18-3.88-1.81-6.47-3.29,0,0-.02,0-.04-.02-.06-.27-.19-.56-.38-.87-.69-1.12-1.83-2.09-2.99-2.08-.14,0-.21,0-.35,0,.67-3.11,1.4-4.65.28-7.92-.31-1.12-1.74-2.42-3.14-2.93-.83-.31-1.53-.27-1.84.09-.41.46-.62.69-1.05,1.16-.46.49-1.6.35-2.81-.37-.55-.32-.82-.49-1.38-.81-2.57-1.52-4.79-1.54-4.99.03-.04.34-.07.51-.12.85-.13.75-.97.81-2.31.47-1.27-.33-1.94-.36-3.3-.23-1.79.16-3.41,2.14-3.17,3.74.14.92.94,1.51,1.98,1.73,5.03,1.24,5.68,2.61,7.21,5.33-.1.05-.15.07-.24.12-.78.41-1.03,1.87-.34,2.81.39.53.99.87,1.58,1.03.21,1.41.53,2,.78,2.99.96,3.73-9.87,10.61-8.94,17.52.54,4.2,3.91,7.15,8.1,7.14,4.75,0,9.65-3.29,13.54-2.1,1.62.5,1.11,2.09,4.18,2.1,4.17.02,8.81-3.19,12.16-8.26.27-.41.4-.61.65-1.01,4.79-7.71.42-13.72-6.61-17.2Z"/>
        <path class="cls-4" d="m67.46,35.13c1.93-.51,5.73-.2,9.45-.6,4.49-.48,7.95-1.53,7.95-1.53,4.24.1,9.76,1.15,10.91-4.72"/>
        <path class="cls-4" d="m66.3,31.19c1.93-.51,6.02.4,9.74,0,4.49-.48,5.05-1.14,5.05-1.14"/>
        <path class="cls-4" d="m84.86,33s9.5-3.45,6.86-7.37"/>
      </g>
    </g>
  </g>
</svg>