<?xml version="1.0" encoding="UTF-8"?>
<svg id="Layer_2" data-name="Layer 2" xmlns="http://www.w3.org/2000/svg" viewBox="0 0 113.02 81.85">
  <defs>
    <style>
      .cls-1, .cls-2, .cls-3 {
        fill: none;
        stroke: #45f6ff;
        stroke-miterlimit: 10;
      }

      .cls-2 {
        stroke-width: 3px;
      }

      .cls-4 {
        fill: #45f6ff;
      }

      .cls-5 {
        fill: #e1e548;
      }

      .cls-3 {
        stroke-width: 2px;
      }
    </style>
  </defs>
  <g id="Layer_5" data-name="Layer 5">
    <g>
      <g>
        <path class="cls-4" d="m103.41,6.52h-8.52V2.16c0-1.21-.91-2.16-2.08-2.16-.16,0-.32.02-.48.05l-38.33,8.68c-1.09.25-1.91,1.3-1.91,2.45v59.49c0,1.15.82,2.2,1.91,2.45l38.33,8.68c.16.04.32.05.48.05,1.17,0,2.08-.95,2.08-2.16v-4.37h8.52c1.24,0,2.25-1.08,2.25-2.4V8.93c0-1.32-1.01-2.4-2.25-2.4Zm-11.47,72.16l-36.89-8.36V11.52L91.94,3.17v75.52h0Zm10.76-6.31h-7.81V9.47h7.81v62.9Z"/>
        <path class="cls-4" d="m81.65,35.95c-2.6,0-4.71,2.23-4.71,4.97s2.11,4.97,4.71,4.97,4.71-2.23,4.71-4.97-2.11-4.97-4.71-4.97Zm0,7c-.97,0-1.76-.91-1.76-2.02s.79-2.02,1.76-2.02,1.76.91,1.76,2.02-.79,2.02-1.76,2.02Z"/>
      </g>
      <g>
        <path class="cls-5" d="m94.43,17.7c7.48,1.63,11.22,2.63,18.6,4.83v45.82c-7.06-4.79-10.67-7.2-17.93-11.72"/>
        <path class="cls-5" d="m16.01,27.45c5.22-5.59,7.81-8.96,13.38-17.76.1,3.22.18,4.69.37,7.55,6.66-1.9,10.12-2.51,17.18-3.2.47,8,.79,12.16,1.27,20.16-7.09-2.01-10.59-2.68-17.38-3.05.19,2.86.28,4.33.37,7.55-6.21-7.46-9.37-9.58-15.19-11.24Z"/>
      </g>
      <g>
        <rect class="cls-3" x="1" y="9.47" width="47.28" height="49.87" rx="7.37" ry="7.37"/>
        <line class="cls-2" x1="22.82" y1="59.34" x2="22.82" y2="9.47"/>
        <line class="cls-3" x1="1" y1="21.87" x2="22.49" y2="21.87"/>
      </g>
      <path class="cls-1" d="m19.14,39.1c.67-.62,1.01-1.76.68-2.63-.33-.9-1.34-1.37-2.18-1.39-.03-.43-.22-.87-.56-1.24-.39-.43-.92-.73-1.45-.82-.9-.15-1.99.49-2.48,1.33-.27-.1-.58-.15-.89-.15-.7,0-1.34.27-1.71.73-.59.72-.64,1.9-.2,2.71-.26.23-.47.54-.62.91-.24.59-.26,1.22-.07,1.73.34.91,1.57,1.55,2.51,1.58.04.32.16.64.33.92.04.07.1.13.15.19-.23.29-.49.77-.71,1.52-.18-.24-.4-.46-.63-.64-.21-.16-.46-.31-.74-.45-.26-.12-.89-.46-1.23-.97-.1-.16-.29-.25-.48-.23-.19.02-.36.14-.43.32-.02.05-.52,1.29-.05,2.5.4,1.03,1.48,1.72,2.67,1.72.06,0,.11,0,.17,0,.11,0,.22-.02.33-.04-.06.65-.09,1.41-.09,2.28h-4.78c-.15,0-.3.07-.39.19-.1.11-.14.27-.11.42l1.41,7.91c.05.24.26.43.51.43h7.77c.25,0,.47-.18.51-.43l1.41-7.91c.03-.15,0-.3-.11-.42-.1-.12-.25-.19-.4-.19h-4.78c-.02-3.57.66-4.92.98-5.36.13.05.25.09.39.11.12.02.24.03.37.03.87,0,1.86-.49,2.19-1.33.25.08.52.12.8.12.7,0,1.34-.27,1.71-.73.37-.45.55-1.12.48-1.78-.03-.35-.13-.67-.27-.93Zm-2.93.48c-.32.39-.77.63-1.28.68-.06,0-.12,0-.19,0-.97,0-1.78-.73-1.87-1.7-.1-1.04.66-1.96,1.69-2.06,1.03-.1,1.96.65,2.06,1.69,0,0,0,0,0,.01.05.5-.1.99-.42,1.38Z"/>
    </g>
  </g>
</svg>