<?xml version="1.0" encoding="UTF-8"?>
<svg id="Layer_2" data-name="Layer 2" xmlns="http://www.w3.org/2000/svg" viewBox="0 0 48.19 54.78">
  <defs>
    <style>
      .cls-1 {
        stroke: #000;
        stroke-linecap: round;
        stroke-linejoin: round;
        stroke-width: 2px;
      }

      .cls-1, .cls-2 {
        fill: #45f6ff;
      }

      .cls-3 {
        fill: #e1e548;
      }

      .cls-4 {
        fill: #2b79c2;
      }
    </style>
  </defs>
  <g id="ICON">
    <g>
      <g>
        <path class="cls-2" d="m28.22,13.61l12.71,3.77.43-1.46c.35-1.23-.29-2.48-1.43-2.81l-4.4-1.3c-.16-.05-.31-.16-.4-.3l-2.05-3.09c-.28-.42-.68-.72-1.14-.86l-3.7-1.1c-1.13-.35-2.35.36-2.73,1.58l-3.83,12.91,4.09-6.38c.55-.84,1.54-1.23,2.44-.95Z"/>
        <path class="cls-2" d="m42.66,19.49l-14.88-4.41c-.31-.1-.64.03-.84.31l-5.02,7.81c.05.06.09.12.14.19s.1.11.15.16c.07.07.15.13.23.18.05.03.09.07.14.1.13.08.27.14.41.19l12.95,3.84c.9.27,1.89-.11,2.44-.95l3.89-6.01c.27-.41.41-.9.38-1.39Z"/>
      </g>
      <g>
        <path class="cls-1" d="m13.42,6.66l-7.23,4.09c-1,.56-1.39,1.77-.87,2.69l7.53,13.32c.52.92,1.75,1.21,2.75.64l10.85-6.14c1-.56,1.39-1.77.87-2.69l-5.65-9.99-8.25-1.93Z"/>
        <path class="cls-1" d="m13.42,6.66l2.83,4.99,5.42-3.07m-1.26,6.21l-7.23,4.09m9.11-.76l-7.23,4.09m-1.96-7.68l-1.81,1.02"/>
      </g>
      <path class="cls-4" d="m7.49,19.23l1.83,33.64c.06,1.07.94,1.91,2.02,1.91h27.44c1.07,0,1.96-.84,2.02-1.91l1.83-33.64H7.49Zm8.35,32.45h-.04c-.41,0-.75-.32-.77-.73l-1.49-27.63c-.02-.42.3-.79.72-.81.42-.02.79.3.82.73l1.49,27.62c.02.43-.3.79-.72.82Zm10-.77c0,.43-.35.77-.77.77s-.77-.35-.77-.77v-27.62c0-.43.35-.77.77-.77s.77.35.77.77v27.62Zm9.27.04c-.03.41-.37.73-.77.73h-.04c-.42-.03-.74-.39-.72-.82l1.49-27.62c.02-.43.39-.75.81-.73.43.02.75.39.73.81l-1.49,27.63Z"/>
      <path class="cls-4" d="m44.07,2.63c-.04-.3-.32-.52-.62-.48l-11.88,1.52-.23-1.77c-.15-1.19-1.25-2.04-2.44-1.88l-10.1,1.29c-.58.07-1.09.37-1.45.83-.36.46-.51,1.03-.44,1.61l.23,1.77-11.49,1.47c-.3.04-.52.32-.48.62l.28,2.17c.04.3.32.52.62.48l37.79-4.84c.3-.04.52-.32.48-.62l-.28-2.17Zm-25.66.92c-.02-.18.03-.36.14-.5.11-.14.27-.24.45-.26l10.1-1.29c.38-.05.71.22.76.59l.23,1.77-11.45,1.46-.23-1.77Z"/>
      <polyline class="cls-3" points="0 37.23 0 25.18 48.19 25.18 48.19 37.23"/>
    </g>
  </g>
</svg>