<?xml version="1.0" encoding="UTF-8"?>
<svg id="Layer_2" data-name="Layer 2" xmlns="http://www.w3.org/2000/svg" viewBox="0 0 100.11 63.51">
  <defs>
    <style>
      .cls-1 {
        fill: #2b79c2;
      }

      .cls-1, .cls-2 {
        stroke: #45f6ff;
        stroke-miterlimit: 10;
      }

      .cls-2 {
        fill: none;
      }

      .cls-3 {
        fill: #e1e548;
      }
    </style>
  </defs>
  <g id="ICON">
    <g>
      <path class="cls-2" d="m.5,8v47.68c0,1.16.94,2.1,2.1,2.1h.06v4.32s10.81,0,10.81,0v-4.32h1.08s9.01,5.07,9.01,5.07c.18.1.39.15.59.15s.42-.05.61-.16c.37-.22.6-.62.6-1.04v-.77h10.65s0-3.24,0-3.24h7.37v4.32s18.81,0,18.81,0v-4.32h.06c1.16,0,2.1-.94,2.1-2.1V8c0-1.16-.94-2.1-2.1-2.1h-26.24v-3.24s-10.65,0-10.65,0v-.95c0-.43-.23-.83-.6-1.04-.37-.22-.83-.22-1.2,0l-9.33,5.25H2.6c-1.16,0-2.1.94-2.1,2.1Z"/>
      <path class="cls-2" d="m36.01,52.7c15.38,0,20.62.07,23.21.07.81,0,.81-1.12.81-1.84V12.76c0-1.4-1.14-2.53-2.54-2.53h-21.49"/>
      <polygon class="cls-2" points="25.36 58.86 25.36 4.82 33.84 4.82 33.84 5.9 33.84 10.22 33.84 22.11 33.84 34 33.84 41.57 33.84 53.46 33.84 57.78 33.84 58.86 25.36 58.86"/>
      <path class="cls-2" d="m23.2,3.34v56.83s-15.13-8.51-15.13-8.51v-3.6c.6,0,1.08-.48,1.08-1.08,0-.6-.48-1.08-1.08-1.08v-1.08c.6,0,1.08-.48,1.08-1.08,0-.6-.48-1.08-1.08-1.08v-21.62c.6,0,1.08-.48,1.08-1.08s-.48-1.08-1.08-1.08v-1.08c.6,0,1.08-.48,1.08-1.08s-.48-1.08-1.08-1.08v-3.69S23.2,3.34,23.2,3.34Z"/>
      <circle class="cls-2" cx="29.6" cy="10.5" r="2.43"/>
      <circle class="cls-2" cx="29.6" cy="51.13" r="2.43"/>
      <circle class="cls-2" cx="29.6" cy="43.64" r="2.43"/>
      <circle class="cls-2" cx="29.6" cy="17.86" r="2.43"/>
      <path class="cls-2" d="m14.23,5.9l-8.32,4.68v.09s0,4.96,0,4.96h-1.08c-.6,0-1.08.48-1.08,1.08,0,.6.48,1.08,1.08,1.08h1.08v1.08h-1.08c-.6,0-1.08.48-1.08,1.08,0,.6.48,1.08,1.08,1.08h1.08v21.62h-1.08c-.6,0-1.08.48-1.08,1.08s.48,1.08,1.08,1.08h1.08v1.08h-1.08c-.6,0-1.08.48-1.08,1.08s.48,1.08,1.08,1.08h1.08v4.96s9.73,5.38,9.73,5.38"/>
      <g>
        <path class="cls-1" d="m62.77,35.98c2.24-1.32,3.75-1.83,6.3-3.25,0,0,.02,0,.03-.01.06-.27.19-.56.39-.88.72-1.16,1.96-2.29,3.12-2.27.14,0,.21,0,.35,0-.31-3.51-.55-5.87,1.22-9.53.53-1.27,2.14-2.36,3.56-2.51.84-.09,1.5.14,1.75.62.33.61.53.9.92,1.49.4.61,1.59.74,2.92.27.6-.21.89-.32,1.49-.57,2.74-1.14,4.75-1.03,4.79.53,0,.34.01.51.02.84.03.74.83,1.06,1.9.9,1.02-.15,1.54-.25,2.65-.02,1.45.3,2.69,2.08,2.42,3.19-.15.64-.86.99-1.75,1.06-4.32.49-5.1,1.92-7.11,4.77.12.02.18.03.29.06.93.22,1.19,1.61.51,2.64-.39.58-1.01.99-1.66,1.22-.06,1.39-.34,2.02-.59,3.1-.95,4.07,6.44,6.82,7.03,16.09.38,5.64-2.75,8.83-6.91,8.81-4.72-.02-9.6-3.3-13.46-2.11-1.61.5-1.08,2.12-4.15,2.11-4.17-.02-8.84-3.28-11.3-6.57-.2-.26-.29-.4-.47-.66-3.46-5.08-.86-15.44,5.76-19.32Z"/>
        <path class="cls-2" d="m99.61,33.94c-.22-3.22-6.52-5.39-11.15-3.51-.47,2.17-1.26,3.37-1.26,3.37-10.53,2.82-16.28,1.93-18.13-.7"/>
        <path class="cls-2" d="m88.03,30.67c-10.75,2.59-13.74,1.54-15.27-1.52"/>
        <path class="cls-2" d="m88.02,30.82s12.3.22,6.64,6.33"/>
      </g>
      <polygon class="cls-3" points="80.19 33.52 61.89 17.13 61.89 25.33 41.01 25.33 41.01 41.72 61.89 41.72 61.89 49.92 80.19 33.52"/>
    </g>
  </g>
</svg>