<?xml version="1.0" encoding="UTF-8"?>
<svg id="Layer_2" data-name="Layer 2" xmlns="http://www.w3.org/2000/svg" viewBox="0 0 92.56 63.79">
  <defs>
    <style>
      .cls-1 {
        fill: #2b79c2;
      }

      .cls-1, .cls-2, .cls-3, .cls-4 {
        stroke: #45f6ff;
        stroke-miterlimit: 10;
      }

      .cls-2, .cls-3 {
        fill: none;
      }

      .cls-5, .cls-4 {
        fill: #45f6ff;
      }

      .cls-6 {
        fill: #e1e548;
      }

      .cls-3, .cls-4 {
        stroke-width: 1.5px;
      }
    </style>
  </defs>
  <g id="ICON">
    <g>
      <g>
        <path class="cls-3" d="m25.81,63.1l-9.01-5.28h-5.08s0,4.32,0,4.32H2.91v-4.32s-.06,0-.06,0c-1.16,0-2.1-.94-2.1-2.1V8.04c0-1.16.94-2.1,2.1-2.1h13.63S25.81.69,25.81.69"/>
        <path class="cls-3" d="m35.03,5.97l25.47-.03c1.16,0,2.1.94,2.1,2.1v47.68c0,.39-.29,2.1-2.16,2.1v4.32h-7.81v-4.32s-17.63,0-17.63,0"/>
        <path class="cls-3" d="m35,52.78c15.38,0,18.31.07,20.91.07.81,0,.81-1.12.81-1.84V12.85c0-1.4-1.14-2.53-2.54-2.53l-19.18.03"/>
        <polygon class="cls-3" points="26.05 63.04 26.05 .75 34.53 .75 34.53 1.91 34.53 6.57 34.53 19.37 34.53 32.18 34.53 40.33 34.53 53.13 34.53 57.79 34.53 63.04 26.05 63.04"/>
        <circle class="cls-5" cx="30.29" cy="10.59" r="2.43"/>
        <circle class="cls-5" cx="30.29" cy="51.21" r="2.43"/>
        <circle class="cls-5" cx="30.29" cy="43.73" r="2.43"/>
        <circle class="cls-5" cx="30.29" cy="17.95" r="2.43"/>
        <path class="cls-3" d="m16.48,5.94l-9.88,5.73s0,3.46,0,9.45v21.62s0,5.4,0,5.4v3.96s10.44,5.86,10.44,5.86"/>
        <rect class="cls-4" x="4.58" y="14.44" width="4.02" height="10.44" rx="1.56" ry="1.56"/>
        <rect class="cls-4" x="4.59" y="39.12" width="4.02" height="10.44" rx="1.56" ry="1.56"/>
      </g>
      <g>
        <path class="cls-1" d="m55.21,35.58c2.24-1.32,3.75-1.83,6.3-3.25,0,0,.02,0,.03-.01.06-.27.19-.56.39-.88.72-1.16,1.96-2.29,3.12-2.27.14,0,.21,0,.35,0-.31-3.51-.55-5.87,1.22-9.53.53-1.27,2.14-2.36,3.56-2.51.84-.09,1.5.14,1.75.62.33.61.53.9.92,1.49.4.61,1.59.74,2.92.27.6-.21.89-.32,1.49-.57,2.74-1.14,4.75-1.03,4.79.53,0,.34.01.51.02.84.03.74.83,1.06,1.9.9,1.02-.15,1.54-.25,2.65-.02,1.45.3,2.69,2.08,2.42,3.19-.15.64-.86.99-1.75,1.06-4.32.49-5.1,1.92-7.11,4.77.12.02.18.03.29.06.93.22,1.19,1.61.51,2.64-.39.58-1.01.99-1.66,1.22-.06,1.39-.34,2.02-.59,3.1-.95,4.07,6.44,6.82,7.03,16.09.38,5.64-2.75,8.83-6.91,8.81-4.72-.02-9.6-3.3-13.46-2.11-1.61.5-1.08,2.12-4.15,2.11-4.17-.02-8.84-3.28-11.3-6.57-.2-.26-.29-.4-.47-.66-3.46-5.08-.86-15.44,5.76-19.32Z"/>
        <path class="cls-2" d="m92.06,33.54c-.22-3.22-6.52-5.39-11.15-3.51-.47,2.17-1.26,3.37-1.26,3.37-10.53,2.82-16.28,1.93-18.13-.7"/>
        <path class="cls-2" d="m80.48,30.27c-10.75,2.59-13.74,1.54-15.27-1.52"/>
        <path class="cls-2" d="m80.47,30.42s12.3.22,6.64,6.33"/>
      </g>
      <polygon class="cls-6" points="77.63 33.12 59.34 16.73 59.34 24.92 38.45 24.92 38.45 41.32 59.34 41.32 59.34 49.51 77.63 33.12"/>
    </g>
  </g>
</svg>