<?xml version="1.0" encoding="UTF-8"?>
<svg id="Layer_2" data-name="Layer 2" xmlns="http://www.w3.org/2000/svg" viewBox="0 0 100.4 63.51">
  <defs>
    <style>
      .cls-1 {
        stroke: #45f6ff;
      }

      .cls-1, .cls-2 {
        fill: none;
        stroke-miterlimit: 10;
      }

      .cls-3 {
        fill: #e1e548;
      }

      .cls-2 {
        stroke: #e1e548;
        stroke-width: 2px;
      }
    </style>
  </defs>
  <g id="ICON">
    <g>
      <path class="cls-1" d="m.5,8v47.68c0,1.16.94,2.1,2.1,2.1h.06v4.32s10.81,0,10.81,0v-4.32h1.08s9.01,5.07,9.01,5.07c.18.1.39.15.59.15s.42-.05.61-.16c.37-.22.6-.62.6-1.04v-.77h10.65s0-3.24,0-3.24h7.37v4.32s18.81,0,18.81,0v-4.32h.06c1.16,0,2.1-.94,2.1-2.1V8c0-1.16-.94-2.1-2.1-2.1h-26.24v-3.24s-10.65,0-10.65,0v-.95c0-.43-.23-.83-.6-1.04-.37-.22-.83-.22-1.2,0l-9.33,5.25H2.6c-1.16,0-2.1.94-2.1,2.1Z"/>
      <path class="cls-1" d="m36.01,52.7c15.38,0,20.62.07,23.21.07.81,0,.81-1.12.81-1.84V12.76c0-1.4-1.14-2.53-2.54-2.53h-21.49"/>
      <polygon class="cls-1" points="25.36 58.86 25.36 4.82 33.84 4.82 33.84 5.9 33.84 10.22 33.84 22.11 33.84 34 33.84 41.57 33.84 53.46 33.84 57.78 33.84 58.86 25.36 58.86"/>
      <path class="cls-1" d="m23.2,3.34v56.83s-15.13-8.51-15.13-8.51v-3.6c.6,0,1.08-.48,1.08-1.08,0-.6-.48-1.08-1.08-1.08v-1.08c.6,0,1.08-.48,1.08-1.08,0-.6-.48-1.08-1.08-1.08v-21.62c.6,0,1.08-.48,1.08-1.08s-.48-1.08-1.08-1.08v-1.08c.6,0,1.08-.48,1.08-1.08s-.48-1.08-1.08-1.08v-3.69S23.2,3.34,23.2,3.34Z"/>
      <circle class="cls-1" cx="29.6" cy="10.5" r="2.43"/>
      <circle class="cls-1" cx="29.6" cy="51.13" r="2.43"/>
      <circle class="cls-1" cx="29.6" cy="43.64" r="2.43"/>
      <circle class="cls-1" cx="29.6" cy="17.86" r="2.43"/>
      <path class="cls-1" d="m14.23,5.9l-8.32,4.68v.09s0,4.96,0,4.96h-1.08c-.6,0-1.08.48-1.08,1.08,0,.6.48,1.08,1.08,1.08h1.08v1.08h-1.08c-.6,0-1.08.48-1.08,1.08,0,.6.48,1.08,1.08,1.08h1.08v21.62h-1.08c-.6,0-1.08.48-1.08,1.08s.48,1.08,1.08,1.08h1.08v1.08h-1.08c-.6,0-1.08.48-1.08,1.08s.48,1.08,1.08,1.08h1.08v4.96s9.73,5.38,9.73,5.38"/>
      <polygon class="cls-3" points="80.19 33.52 59.56 17.13 59.56 25.33 36.01 25.33 36.01 41.72 59.56 41.72 59.56 49.92 80.19 33.52"/>
      <g>
        <rect class="cls-1" x="83.15" y="20.37" width="12.49" height="12.49" rx="2.44" ry="2.44"/>
        <rect class="cls-1" x="83.15" y="50.51" width="12.49" height="12.49" rx="2.44" ry="2.44"/>
        <g>
          <rect class="cls-1" x="83.15" y="5.5" width="12.49" height="12.49" rx="2.44" ry="2.44"/>
          <path class="cls-2" d="m85.06,7.88c3.47,1.47,4.33,6.68,4.33,6.68,0,0,4.1-6.61,10.61-9.47"/>
        </g>
        <g>
          <rect class="cls-1" x="83.15" y="35.6" width="12.49" height="12.49" rx="2.44" ry="2.44"/>
          <path class="cls-2" d="m85.06,38.07c3.47,1.47,4.33,6.68,4.33,6.68,0,0,4.1-6.61,10.61-9.47"/>
        </g>
      </g>
    </g>
  </g>
</svg>