<?xml version="1.0" encoding="UTF-8"?>
<svg id="Layer_2" data-name="Layer 2" xmlns="http://www.w3.org/2000/svg" viewBox="0 0 88.85 63.79">
  <defs>
    <style>
      .cls-1, .cls-2, .cls-3 {
        fill: none;
      }

      .cls-1, .cls-2, .cls-3, .cls-4 {
        stroke-miterlimit: 10;
      }

      .cls-1, .cls-2, .cls-4 {
        stroke: #45f6ff;
      }

      .cls-5, .cls-4 {
        fill: #45f6ff;
      }

      .cls-6 {
        fill: #e1e548;
      }

      .cls-2, .cls-4 {
        stroke-width: 1.5px;
      }

      .cls-3 {
        stroke: #e1e548;
        stroke-width: 2px;
      }
    </style>
  </defs>
  <g id="ICON">
    <g>
      <g>
        <path class="cls-2" d="m25.81,63.1l-9.01-5.28h-5.08s0,4.32,0,4.32H2.91v-4.32s-.06,0-.06,0c-1.16,0-2.1-.94-2.1-2.1V8.04c0-1.16.94-2.1,2.1-2.1h13.63S25.81.69,25.81.69"/>
        <path class="cls-2" d="m35.03,5.97l25.47-.03c1.16,0,2.1.94,2.1,2.1v47.68c0,.39-.29,2.1-2.16,2.1v4.32h-7.81v-4.32s-17.63,0-17.63,0"/>
        <path class="cls-2" d="m35,52.78c15.38,0,18.31.07,20.91.07.81,0,.81-1.12.81-1.84V12.85c0-1.4-1.14-2.53-2.54-2.53l-19.18.03"/>
        <polygon class="cls-2" points="26.05 63.04 26.05 .75 34.53 .75 34.53 1.91 34.53 6.57 34.53 19.37 34.53 32.18 34.53 40.33 34.53 53.13 34.53 57.79 34.53 63.04 26.05 63.04"/>
        <circle class="cls-5" cx="30.29" cy="10.59" r="2.43"/>
        <circle class="cls-5" cx="30.29" cy="51.21" r="2.43"/>
        <circle class="cls-5" cx="30.29" cy="43.73" r="2.43"/>
        <circle class="cls-5" cx="30.29" cy="17.95" r="2.43"/>
        <path class="cls-2" d="m16.48,5.94l-9.88,5.73s0,3.46,0,9.45v21.62s0,5.4,0,5.4v3.96s10.44,5.86,10.44,5.86"/>
        <rect class="cls-4" x="4.58" y="14.44" width="4.02" height="10.44" rx="1.56" ry="1.56"/>
        <rect class="cls-4" x="4.59" y="39.12" width="4.02" height="10.44" rx="1.56" ry="1.56"/>
      </g>
      <g>
        <rect class="cls-1" x="71.6" y="20.36" width="12.49" height="12.49" rx="2.44" ry="2.44"/>
        <rect class="cls-1" x="71.6" y="50.5" width="12.49" height="12.49" rx="2.44" ry="2.44"/>
        <g>
          <rect class="cls-1" x="71.6" y="5.49" width="12.49" height="12.49" rx="2.44" ry="2.44"/>
          <path class="cls-3" d="m73.51,7.87c3.47,1.47,4.33,6.68,4.33,6.68,0,0,4.1-6.61,10.61-9.47"/>
        </g>
        <g>
          <rect class="cls-1" x="71.6" y="35.59" width="12.49" height="12.49" rx="2.44" ry="2.44"/>
          <path class="cls-3" d="m73.51,38.06c3.47,1.47,4.33,6.68,4.33,6.68,0,0,4.1-6.61,10.61-9.47"/>
        </g>
      </g>
      <polygon class="cls-6" points="77.63 32.85 59.34 16.46 59.34 24.65 38.45 24.65 38.45 41.05 59.34 41.05 59.34 49.24 77.63 32.85"/>
    </g>
  </g>
</svg>