<?xml version="1.0" encoding="UTF-8"?>
<svg id="Layer_2" data-name="Layer 2" xmlns="http://www.w3.org/2000/svg" viewBox="0 0 101.44 63.58">
  <defs>
    <style>
      .cls-1 {
        fill: #2b79c2;
      }

      .cls-1, .cls-2 {
        stroke: #45f6ff;
        stroke-miterlimit: 10;
      }

      .cls-2 {
        fill: none;
      }

      .cls-3 {
        fill: #e1e548;
      }
    </style>
  </defs>
  <g id="ICON">
    <g>
      <path class="cls-2" d="m.5,8v47.68c0,1.16.94,2.1,2.1,2.1h.06v4.32s10.81,0,10.81,0v-4.32h1.08s9.01,5.07,9.01,5.07c.18.1.39.15.59.15s.42-.05.61-.16c.37-.22.6-.62.6-1.04v-.77h10.65s0-3.24,0-3.24h7.37v4.32s18.81,0,18.81,0v-4.32h.06c1.16,0,2.1-.94,2.1-2.1V8c0-1.16-.94-2.1-2.1-2.1h-26.24v-3.24s-10.65,0-10.65,0v-.95c0-.43-.23-.83-.6-1.04-.37-.22-.83-.22-1.2,0l-9.33,5.25H2.6c-1.16,0-2.1.94-2.1,2.1Z"/>
      <path class="cls-2" d="m36.01,52.7c15.38,0,20.62.07,23.21.07.81,0,.81-1.12.81-1.84V12.76c0-1.4-1.14-2.53-2.54-2.53h-21.49"/>
      <polygon class="cls-3" points="36.01 33.52 54.3 17.13 54.3 25.33 75.19 25.33 75.19 41.72 54.3 41.72 54.3 49.92 36.01 33.52"/>
      <polygon class="cls-2" points="25.36 58.86 25.36 4.82 33.84 4.82 33.84 5.9 33.84 10.22 33.84 22.11 33.84 34 33.84 41.57 33.84 53.46 33.84 57.78 33.84 58.86 25.36 58.86"/>
      <path class="cls-2" d="m23.2,3.34v56.83s-15.13-8.51-15.13-8.51v-3.6c.6,0,1.08-.48,1.08-1.08,0-.6-.48-1.08-1.08-1.08v-1.08c.6,0,1.08-.48,1.08-1.08,0-.6-.48-1.08-1.08-1.08v-21.62c.6,0,1.08-.48,1.08-1.08s-.48-1.08-1.08-1.08v-1.08c.6,0,1.08-.48,1.08-1.08s-.48-1.08-1.08-1.08v-3.69S23.2,3.34,23.2,3.34Z"/>
      <circle class="cls-2" cx="29.6" cy="10.5" r="2.43"/>
      <circle class="cls-2" cx="29.6" cy="51.13" r="2.43"/>
      <circle class="cls-2" cx="29.6" cy="43.64" r="2.43"/>
      <circle class="cls-2" cx="29.6" cy="17.86" r="2.43"/>
      <path class="cls-2" d="m14.23,5.9l-8.32,4.68v.09s0,4.96,0,4.96h-1.08c-.6,0-1.08.48-1.08,1.08,0,.6.48,1.08,1.08,1.08h1.08v1.08h-1.08c-.6,0-1.08.48-1.08,1.08,0,.6.48,1.08,1.08,1.08h1.08v21.62h-1.08c-.6,0-1.08.48-1.08,1.08s.48,1.08,1.08,1.08h1.08v1.08h-1.08c-.6,0-1.08.48-1.08,1.08s.48,1.08,1.08,1.08h1.08v4.96s9.73,5.38,9.73,5.38"/>
      <g>
        <path class="cls-1" d="m92.31,36.6c-2.38-1.18-3.88-1.81-6.47-3.29,0,0-.02,0-.04-.02-.06-.27-.19-.56-.38-.87-.69-1.12-1.83-2.09-2.99-2.08-.14,0-.21,0-.35,0,.67-3.11,1.4-4.65.28-7.92-.31-1.12-1.74-2.42-3.14-2.93-.83-.31-1.53-.27-1.84.09-.41.46-.62.69-1.05,1.16-.46.49-1.6.35-2.81-.37-.55-.32-.82-.49-1.38-.81-2.57-1.52-4.79-1.54-4.99.03-.04.34-.07.51-.12.85-.13.75-.97.81-2.31.47-1.27-.33-1.94-.36-3.3-.23-1.79.16-3.41,2.14-3.17,3.74.14.92.94,1.51,1.98,1.73,5.03,1.24,5.68,2.61,7.21,5.33-.1.05-.15.07-.24.12-.78.41-1.03,1.87-.34,2.81.39.53.99.87,1.58,1.03.21,1.41.53,2,.78,2.99.96,3.73-9.87,10.61-8.94,17.52.54,4.2,3.91,7.15,8.1,7.14,4.75,0,9.65-3.29,13.54-2.1,1.62.5,1.11,2.09,4.18,2.1,4.17.02,8.81-3.19,12.16-8.26.27-.41.4-.61.65-1.01,4.79-7.71.42-13.72-6.61-17.2Z"/>
        <path class="cls-2" d="m68.44,35.43c1.93-.51,5.73-.2,9.45-.6,4.49-.48,7.95-1.53,7.95-1.53,4.24.1,9.76,1.15,10.91-4.72"/>
        <path class="cls-2" d="m67.29,31.5c1.93-.51,6.02.4,9.74,0,4.49-.48,5.05-1.14,5.05-1.14"/>
        <path class="cls-2" d="m85.84,33.31s9.5-3.45,6.86-7.37"/>
      </g>
    </g>
  </g>
</svg>