<?xml version="1.0" encoding="UTF-8"?>
<svg id="Layer_2" data-name="Layer 2" xmlns="http://www.w3.org/2000/svg" viewBox="0 0 99.14 63.58">
  <defs>
    <style>
      .cls-1 {
        fill: #2b79c2;
      }

      .cls-1, .cls-2 {
        stroke: #45f6ff;
        stroke-miterlimit: 10;
      }

      .cls-2 {
        fill: none;
      }

      .cls-3 {
        fill: #e1e548;
      }
    </style>
  </defs>
  <g id="ICON">
    <g>
      <g>
        <path class="cls-2" d="m.5,8v47.68c0,1.16.94,2.1,2.1,2.1h.06v4.32s10.81,0,10.81,0v-4.32h1.08s9.01,5.07,9.01,5.07c.18.1.39.15.59.15s.42-.05.61-.16c.37-.22.6-.62.6-1.04v-.77h10.65s0-3.24,0-3.24h7.37v4.32s18.81,0,18.81,0v-4.32h.06c1.16,0,2.1-.94,2.1-2.1V8c0-1.16-.94-2.1-2.1-2.1h-26.24v-3.24s-10.65,0-10.65,0v-.95c0-.43-.23-.83-.6-1.04-.37-.22-.83-.22-1.2,0l-9.33,5.25H2.6c-1.16,0-2.1.94-2.1,2.1Z"/>
        <path class="cls-2" d="m36.01,52.7c15.38,0,20.62.07,23.21.07.81,0,.81-1.12.81-1.84V12.76c0-1.4-1.14-2.53-2.54-2.53h-21.49"/>
        <polygon class="cls-2" points="25.36 58.86 25.36 4.82 33.84 4.82 33.84 5.9 33.84 10.22 33.84 22.11 33.84 34 33.84 41.57 33.84 53.46 33.84 57.78 33.84 58.86 25.36 58.86"/>
        <path class="cls-2" d="m23.2,3.34v56.83s-15.13-8.51-15.13-8.51v-3.6c.6,0,1.08-.48,1.08-1.08,0-.6-.48-1.08-1.08-1.08v-1.08c.6,0,1.08-.48,1.08-1.08,0-.6-.48-1.08-1.08-1.08v-21.62c.6,0,1.08-.48,1.08-1.08s-.48-1.08-1.08-1.08v-1.08c.6,0,1.08-.48,1.08-1.08s-.48-1.08-1.08-1.08v-3.69S23.2,3.34,23.2,3.34Z"/>
        <circle class="cls-2" cx="29.6" cy="10.5" r="2.43"/>
        <circle class="cls-2" cx="29.6" cy="51.13" r="2.43"/>
        <circle class="cls-2" cx="29.6" cy="43.64" r="2.43"/>
        <circle class="cls-2" cx="29.6" cy="17.86" r="2.43"/>
        <path class="cls-2" d="m14.23,5.9l-8.32,4.68v.09s0,4.96,0,4.96h-1.08c-.6,0-1.08.48-1.08,1.08,0,.6.48,1.08,1.08,1.08h1.08v1.08h-1.08c-.6,0-1.08.48-1.08,1.08,0,.6.48,1.08,1.08,1.08h1.08v21.62h-1.08c-.6,0-1.08.48-1.08,1.08s.48,1.08,1.08,1.08h1.08v1.08h-1.08c-.6,0-1.08.48-1.08,1.08s.48,1.08,1.08,1.08h1.08v4.96s9.73,5.38,9.73,5.38"/>
        <g>
          <path class="cls-1" d="m90.58,36.95l-3.72-4.11s-.02-.01-.02-.02c.14-.29.21-.61.21-.94,0-1.2-.94-2.18-2.1-2.18h-.35l3.19-7.87c.52-1.07.1-2.38-.94-2.92-.62-.32-1.35-.31-1.95.04l-1.95,1.1c-.82.46-1.83.31-2.49-.37l-.74-.77c-1.37-1.42-3.59-1.42-4.96,0l-.74.77c-.66.68-1.68.83-2.5.37l-1.95-1.1c-1.02-.57-2.3-.18-2.85.87-.32.61-.34,1.34-.06,1.97l3.2,7.91h-.35c-1.16,0-2.1.96-2.1,2.16,0,.67.3,1.31.82,1.72l-3.33,3.24c-5.01,4.89-7.06,12.19-5.37,19.1,1.01,4.2,4.66,7.15,8.85,7.14,4.74,0,8.95-3.29,13.17-2.1,1.76.5,1.47,2.1,4.55,2.1,4.19,0,7.84-2.94,8.85-7.14l.2-.84c1.58-6.45-.14-13.29-4.56-18.14Z"/>
          <path class="cls-1" d="m68.22,33.6c2.84.48,6.26.55,9.96.45,4.47-.13,8.68-1.2,8.68-1.2,4.6-.94,10.2,2.83,10.18,7.33"/>
          <path class="cls-1" d="m87.21,32.36s8.07-4.57,11.49,1.91"/>
        </g>
      </g>
      <polygon class="cls-3" points="36.01 33.52 54.3 17.13 54.3 25.33 75.19 25.33 75.19 41.72 54.3 41.72 54.3 49.92 36.01 33.52"/>
    </g>
  </g>
</svg>