<?xml version="1.0" encoding="UTF-8"?>
<svg id="Layer_2" data-name="Layer 2" xmlns="http://www.w3.org/2000/svg" viewBox="0 0 65.35 63.01">
  <defs>
    <style>
      .cls-1 {
        fill: none;
        stroke: #45f6ff;
        stroke-miterlimit: 10;
        stroke-width: .5px;
      }
    </style>
  </defs>
  <g id="item_1">
    <g>
      <path class="cls-1" d="m.25,7.75v47.68c0,1.16.94,2.1,2.1,2.1h.06v4.32s10.81,0,10.81,0v-4.32h1.08s9.01,5.07,9.01,5.07c.18.1.39.15.59.15s.42-.05.61-.16c.37-.22.6-.62.6-1.04v-.77h8.65s0-3.24,0-3.24h18.37v4.32s10.81,0,10.81,0v-4.32h.06c1.16,0,2.1-.94,2.1-2.1V7.75c0-1.16-.94-2.1-2.1-2.1h-29.24v-3.24s-8.65,0-8.65,0v-.95c0-.43-.23-.83-.6-1.04-.37-.22-.83-.22-1.2,0l-9.33,5.25H2.35c-1.16,0-2.1.94-2.1,2.1Zm54.04,49.78h6.49v2.16h-6.49v-2.16Z"/>
      <path class="cls-1" d="m33.76,55.37v-2.16h5.9s4.41,0,4.41,0h14.18s2.04,0,2.04,0l-.31-.69c.49-.46.81-1.12.81-1.84V12.51c0-1.4-1.14-2.53-2.54-2.53h-24.49v-2.16h29.24s-.06,47.62-.06,47.62v-.06s-10.81,0-10.81,0v.04l-18.37-.04Z"/>
      <polygon class="cls-1" points="25.11 58.61 25.11 4.57 31.59 4.57 31.59 5.65 31.59 9.97 31.59 21.86 31.59 33.75 31.59 41.32 31.59 53.21 31.59 57.53 31.59 58.61 25.11 58.61"/>
      <path class="cls-1" d="m22.95,59.92l-15.13-8.51v-3.6c.6,0,1.08-.48,1.08-1.08s-.48-1.08-1.08-1.08v-1.08c.6,0,1.08-.48,1.08-1.08s-.48-1.08-1.08-1.08v-21.62c.6,0,1.08-.48,1.08-1.08s-.48-1.08-1.08-1.08v-1.08c.6,0,1.08-.48,1.08-1.08s-.48-1.08-1.08-1.08v-3.69s10.73-6.04,10.73-6.04h-.16s4.56-2.56,4.56-2.56v56.83Z"/>
      <rect class="cls-1" x="4.57" y="57.53" width="6.49" height="2.16"/>
      <path class="cls-1" d="m2.35,55.37l.06-47.62,7.76.04-4.52,2.54v.09s0,4.96,0,4.96h-1.08c-.6,0-1.08.48-1.08,1.08s.48,1.08,1.08,1.08h1.08v1.08h-1.08c-.6,0-1.08.48-1.08,1.08s.48,1.08,1.08,1.08h1.08v21.62h-1.08c-.6,0-1.08.48-1.08,1.08,0,.6.48,1.08,1.08,1.08h1.08v1.08h-1.08c-.6,0-1.08.48-1.08,1.08,0,.6.48,1.08,1.08,1.08h1.08v4.87s0,.09,0,.09l4.64,2.61H2.41s-.06,0-.06,0Z"/>
      <circle class="cls-1" cx="28.35" cy="6.64" r="1.08"/>
      <circle class="cls-1" cx="28.35" cy="13.13" r="1.08"/>
      <circle class="cls-1" cx="28.35" cy="49.88" r="1.08"/>
      <circle class="cls-1" cx="28.35" cy="43.39" r="1.08"/>
      <circle class="cls-1" cx="28.35" cy="19.61" r="1.08"/>
      <circle class="cls-1" cx="28.35" cy="56.36" r="1.08"/>
    </g>
  </g>
</svg>