<?xml version="1.0" encoding="UTF-8"?>
<svg id="Layer_2" data-name="Layer 2" xmlns="http://www.w3.org/2000/svg" viewBox="0 0 57.83 62.65">
  <defs>
    <style>
      .cls-1 {
        fill: #45f6ff;
      }

      .cls-2 {
        fill: #e1e548;
      }
    </style>
  </defs>
  <g id="Layer_5" data-name="Layer 5">
    <g>
      <path class="cls-1" d="m35.5,41.35h-3.62c-.35-1.51-.94-2.95-1.76-4.26l2.55-2.55c.25-.25.25-.66,0-.91,0,0,0,0,0,0l-3.65-3.65c-.25-.25-.66-.25-.91,0,0,0,0,0,0,0l-2.56,2.56c-1.31-.82-2.75-1.41-4.26-1.77v-3.61c0-.36-.29-.65-.64-.65h-5.17c-.36,0-.64.29-.64.64h0v3.62c-1.51.35-2.95.94-4.26,1.76l-2.55-2.55c-.25-.25-.66-.25-.91,0,0,0,0,0,0,0l-3.65,3.65c-.25.25-.25.66,0,.91,0,0,0,0,0,0l2.56,2.56c-.82,1.31-1.41,2.75-1.77,4.26H.64c-.36,0-.64.29-.64.64v5.16c0,.36.29.65.64.65h3.62c.35,1.51.94,2.95,1.76,4.26l-2.55,2.55c-.25.25-.25.66,0,.91,0,0,0,0,0,0l3.65,3.65c.25.25.66.25.91,0,0,0,0,0,0,0l2.56-2.56c1.31.82,2.75,1.41,4.26,1.77v3.61c0,.36.29.64.64.64h5.16c.36,0,.64-.29.64-.64v-3.62c1.51-.35,2.95-.94,4.26-1.76l2.55,2.55c.25.25.66.25.91,0,0,0,0,0,0,0l3.65-3.65c.25-.25.25-.66,0-.91,0,0,0,0,0,0l-2.56-2.56c.82-1.31,1.41-2.75,1.77-4.26h3.61c.36,0,.65-.29.65-.65v-5.16c0-.36-.29-.65-.64-.65Zm-17.43,12.26h0c-4.99,0-9.04-4.04-9.04-9.03h0c0-4.99,4.04-9.04,9.03-9.04h0c4.99,0,9.03,4.04,9.03,9.03,0,4.99-4.04,9.04-9.03,9.04Z"/>
      <path class="cls-2" d="m57.81,32.35s0,0,0,0l-.85-3.16c-.06-.22-.28-.35-.5-.29,0,0,0,0,0,0l-2.21.6c-.46-.86-1.06-1.65-1.77-2.32l1.14-1.98c.11-.19.05-.44-.14-.56,0,0,0,0,0,0l-2.83-1.63c-.19-.11-.44-.05-.55.14,0,0,0,0,0,.01l-1.14,1.98c-.94-.28-1.91-.41-2.89-.38l-.59-2.21c-.06-.22-.28-.35-.5-.29,0,0,0,0,0,0l-3.16.85h0c-.22.05-.35.28-.29.49,0,0,0,0,0,0l.59,2.21c-.86.46-1.65,1.06-2.32,1.77l-1.98-1.14c-.19-.11-.44-.05-.55.14,0,0,0,0,0,.01l-1.64,2.83c-.11.19-.05.44.15.56,0,0,0,0,0,0l1.98,1.14c-.28.94-.41,1.91-.38,2.89l-2.21.59c-.22.06-.35.28-.29.5,0,0,0,0,0,0l.85,3.16c.06.22.28.35.5.29,0,0,0,0,0,0l2.21-.6c.46.86,1.06,1.65,1.77,2.32l-1.14,1.98c-.11.19-.05.44.15.56,0,0,0,0,0,0l2.83,1.63c.2.12.45.04.56-.15l1.14-1.98c.94.28,1.91.41,2.89.38l.59,2.21c.06.22.28.35.5.29,0,0,0,0,0,0l3.16-.85c.22-.06.35-.28.29-.5,0,0,0,0,0,0l-.59-2.21c.86-.46,1.65-1.06,2.32-1.77l1.98,1.14c.19.11.44.05.56-.14,0,0,0,0,0,0l1.63-2.83c.11-.19.05-.44-.15-.56,0,0,0,0,0,0l-1.98-1.14c.28-.94.41-1.92.38-2.9l2.21-.59c.22-.06.35-.28.29-.5Zm-10,6.91c-3.05.82-6.19-.99-7.01-4.05,0,0,0,0,0,0-.82-3.05,1-6.19,4.05-7.01h0c3.05-.82,6.19.99,7.01,4.04.82,3.05-.99,6.19-4.05,7.01Z"/>
      <path class="cls-1" d="m42.9,10.89h-2.66c-.26-1.1-.69-2.16-1.29-3.12l1.87-1.87c.19-.18.19-.48,0-.66,0,0,0,0,0,0l-2.68-2.68c-.18-.18-.48-.19-.66,0,0,0,0,0,0,0l-1.87,1.88c-.96-.6-2.02-1.03-3.12-1.29V.47c0-.26-.21-.47-.47-.47h-3.79c-.26,0-.47.21-.47.47v2.65c-1.11.26-2.16.69-3.13,1.29l-1.87-1.87c-.18-.18-.48-.19-.66,0,0,0,0,0,0,0l-2.68,2.68c-.18.18-.19.48,0,.66,0,0,0,0,0,0l1.87,1.87c-.6.96-1.04,2.02-1.3,3.12h-2.65c-.26,0-.47.21-.47.47,0,0,0,0,0,0v3.79c0,.26.21.47.47.47h2.65c.26,1.1.69,2.16,1.29,3.12l-1.87,1.87c-.18.18-.19.48,0,.67,0,0,0,0,0,0l2.68,2.68c.18.19.48.19.66,0,0,0,0,0,0,0l1.87-1.87c.96.6,2.02,1.04,3.12,1.3v2.65c0,.26.21.47.47.47h3.79c.26,0,.47-.21.47-.47v-2.65c1.11-.26,2.16-.69,3.13-1.29l1.87,1.87c.18.19.48.19.66,0,0,0,0,0,0,0l2.68-2.68c.19-.18.19-.48,0-.67,0,0,0,0,0,0l-1.87-1.87c.6-.96,1.03-2.02,1.29-3.12h2.65c.26,0,.47-.21.47-.47v-3.79c0-.26-.21-.47-.47-.47Zm-12.78,8.99c-3.66,0-6.63-2.97-6.63-6.63,0-3.66,2.97-6.63,6.63-6.63,3.66,0,6.62,2.97,6.62,6.63,0,3.66-2.97,6.63-6.62,6.63Z"/>
    </g>
  </g>
</svg>